<mxfile host="65bd71144e">
    <diagram id="AVOnWEAQ9v66yduFaMwA" name="Page-1">
        <mxGraphModel dx="1284" dy="960" grid="1" gridSize="10" guides="1" tooltips="1" connect="1" arrows="1" fold="1" page="1" pageScale="1" pageWidth="850" pageHeight="1100" math="0" shadow="0">
            <root>
                <mxCell id="0"/>
                <mxCell id="1" parent="0"/>
                <mxCell id="2" value="&lt;font style=&quot;font-size: 24px;&quot;&gt;&lt;b&gt;Development Viewpoint - Tycoon API - Broker&lt;/b&gt;&lt;/font&gt;" style="text;html=1;align=center;verticalAlign=middle;resizable=0;points=[];autosize=1;strokeColor=none;fillColor=none;" parent="1" vertex="1">
                    <mxGeometry x="40" y="60" width="540" height="40" as="geometry"/>
                </mxCell>
                <mxCell id="81" style="edgeStyle=none;html=1;exitX=0;exitY=0.75;exitDx=0;exitDy=0;exitPerimeter=0;entryX=0.5;entryY=0;entryDx=0;entryDy=0;entryPerimeter=0;" edge="1" parent="1" source="22" target="62">
                    <mxGeometry relative="1" as="geometry"/>
                </mxCell>
                <mxCell id="82" value="5. Forward" style="edgeLabel;html=1;align=center;verticalAlign=middle;resizable=0;points=[];" vertex="1" connectable="0" parent="81">
                    <mxGeometry x="-0.2838" y="1" relative="1" as="geometry">
                        <mxPoint y="1" as="offset"/>
                    </mxGeometry>
                </mxCell>
                <mxCell id="86" style="edgeStyle=none;html=1;exitX=1;exitY=0.75;exitDx=0;exitDy=0;exitPerimeter=0;entryX=0.5;entryY=0;entryDx=0;entryDy=0;entryPerimeter=0;" edge="1" parent="1" source="22" target="65">
                    <mxGeometry relative="1" as="geometry"/>
                </mxCell>
                <mxCell id="89" value="3. Forward" style="edgeLabel;html=1;align=center;verticalAlign=middle;resizable=0;points=[];" vertex="1" connectable="0" parent="86">
                    <mxGeometry x="-0.3148" y="-1" relative="1" as="geometry">
                        <mxPoint x="7" y="26" as="offset"/>
                    </mxGeometry>
                </mxCell>
                <mxCell id="22" value="Broker" style="html=1;outlineConnect=0;whiteSpace=wrap;shape=mxgraph.archimate.application;appType=node;align=center;verticalAlign=top;fillColor=#f5f5f5;fontColor=#333333;strokeColor=#666666;" parent="1" vertex="1">
                    <mxGeometry x="360" y="200" width="330" height="200" as="geometry"/>
                </mxCell>
                <mxCell id="23" value="&lt;font style=&quot;font-size: 12px;&quot;&gt;«&lt;span style=&quot;color: rgb(13, 13, 13); font-weight: 600; text-align: left; background-color: rgb(255, 255, 255);&quot;&gt;Broker&lt;/span&gt;»&lt;br&gt;&lt;/font&gt;&lt;span style=&quot;&quot;&gt;Tycoon API&lt;/span&gt;" style="html=1;dropTarget=0;verticalAlign=top;" parent="1" vertex="1">
                    <mxGeometry x="410" y="230" width="240" height="150" as="geometry"/>
                </mxCell>
                <mxCell id="24" value="" style="shape=module;jettyWidth=8;jettyHeight=4;" parent="23" vertex="1">
                    <mxGeometry x="1" width="20" height="20" relative="1" as="geometry">
                        <mxPoint x="-27" y="7" as="offset"/>
                    </mxGeometry>
                </mxCell>
                <mxCell id="77" style="edgeStyle=none;html=1;exitX=0.25;exitY=0;exitDx=0;exitDy=0;exitPerimeter=0;entryX=0;entryY=0.25;entryDx=0;entryDy=0;entryPerimeter=0;" edge="1" parent="1" source="62" target="22">
                    <mxGeometry relative="1" as="geometry">
                        <Array as="points">
                            <mxPoint x="270" y="360"/>
                        </Array>
                    </mxGeometry>
                </mxCell>
                <mxCell id="79" value="2. Query" style="edgeLabel;html=1;align=center;verticalAlign=middle;resizable=0;points=[];" vertex="1" connectable="0" parent="77">
                    <mxGeometry x="0.2365" y="-1" relative="1" as="geometry">
                        <mxPoint x="-1" as="offset"/>
                    </mxGeometry>
                </mxCell>
                <mxCell id="62" value="Client" style="html=1;outlineConnect=0;whiteSpace=wrap;shape=mxgraph.archimate.application;appType=node;align=center;verticalAlign=top;fillColor=#fff2cc;strokeColor=#d6b656;" vertex="1" parent="1">
                    <mxGeometry x="80" y="490" width="330" height="200" as="geometry"/>
                </mxCell>
                <mxCell id="63" value="&lt;font style=&quot;font-size: 12px;&quot;&gt;«&lt;span style=&quot;color: rgb(13, 13, 13); font-weight: 600; text-align: left; background-color: rgb(255, 255, 255);&quot;&gt;Client&lt;/span&gt;»&lt;br&gt;&lt;/font&gt;&lt;span style=&quot;&quot;&gt;Tycoon&lt;/span&gt;" style="html=1;dropTarget=0;verticalAlign=top;" vertex="1" parent="1">
                    <mxGeometry x="130" y="520" width="240" height="150" as="geometry"/>
                </mxCell>
                <mxCell id="64" value="" style="shape=module;jettyWidth=8;jettyHeight=4;" vertex="1" parent="63">
                    <mxGeometry x="1" width="20" height="20" relative="1" as="geometry">
                        <mxPoint x="-27" y="7" as="offset"/>
                    </mxGeometry>
                </mxCell>
                <mxCell id="85" style="edgeStyle=none;html=1;exitX=0.75;exitY=0;exitDx=0;exitDy=0;exitPerimeter=0;entryX=1;entryY=0.25;entryDx=0;entryDy=0;entryPerimeter=0;" edge="1" parent="1" source="65" target="22">
                    <mxGeometry relative="1" as="geometry"/>
                </mxCell>
                <mxCell id="90" value="1. Register" style="edgeLabel;html=1;align=center;verticalAlign=middle;resizable=0;points=[];" vertex="1" connectable="0" parent="85">
                    <mxGeometry x="0.1484" y="-2" relative="1" as="geometry">
                        <mxPoint as="offset"/>
                    </mxGeometry>
                </mxCell>
                <mxCell id="87" style="edgeStyle=none;html=1;exitX=0.25;exitY=0;exitDx=0;exitDy=0;exitPerimeter=0;entryX=0.75;entryY=1;entryDx=0;entryDy=0;entryPerimeter=0;" edge="1" parent="1" source="65" target="22">
                    <mxGeometry relative="1" as="geometry"/>
                </mxCell>
                <mxCell id="88" value="4. Answer" style="edgeLabel;html=1;align=center;verticalAlign=middle;resizable=0;points=[];" vertex="1" connectable="0" parent="87">
                    <mxGeometry x="-0.3851" relative="1" as="geometry">
                        <mxPoint x="1" as="offset"/>
                    </mxGeometry>
                </mxCell>
                <mxCell id="65" value="Providers" style="html=1;outlineConnect=0;whiteSpace=wrap;shape=mxgraph.archimate.application;appType=node;align=center;verticalAlign=top;fillColor=#f8cecc;strokeColor=#b85450;" vertex="1" parent="1">
                    <mxGeometry x="560" y="480" width="400" height="360" as="geometry"/>
                </mxCell>
                <mxCell id="66" value="&lt;font style=&quot;font-size: 12px;&quot;&gt;«&lt;span style=&quot;&quot;&gt;Provider&lt;/span&gt;»&lt;br&gt;&lt;/font&gt;&lt;span style=&quot;&quot;&gt;Accounts&lt;/span&gt;" style="html=1;dropTarget=0;verticalAlign=top;" vertex="1" parent="1">
                    <mxGeometry x="580" y="510" width="160" height="90" as="geometry"/>
                </mxCell>
                <mxCell id="67" value="" style="shape=module;jettyWidth=8;jettyHeight=4;" vertex="1" parent="66">
                    <mxGeometry x="1" width="20" height="20" relative="1" as="geometry">
                        <mxPoint x="-27" y="7" as="offset"/>
                    </mxGeometry>
                </mxCell>
                <mxCell id="68" value="&lt;font style=&quot;font-size: 12px;&quot;&gt;«&lt;span style=&quot;&quot;&gt;Provider&lt;/span&gt;»&lt;br&gt;&lt;/font&gt;&lt;span style=&quot;&quot;&gt;Tickets&lt;/span&gt;" style="html=1;dropTarget=0;verticalAlign=top;" vertex="1" parent="1">
                    <mxGeometry x="780" y="510" width="160" height="90" as="geometry"/>
                </mxCell>
                <mxCell id="69" value="" style="shape=module;jettyWidth=8;jettyHeight=4;" vertex="1" parent="68">
                    <mxGeometry x="1" width="20" height="20" relative="1" as="geometry">
                        <mxPoint x="-27" y="7" as="offset"/>
                    </mxGeometry>
                </mxCell>
                <mxCell id="70" value="&lt;font style=&quot;font-size: 12px;&quot;&gt;«&lt;span style=&quot;&quot;&gt;Provider&lt;/span&gt;»&lt;br&gt;&lt;/font&gt;&lt;span style=&quot;&quot;&gt;Payments&lt;/span&gt;" style="html=1;dropTarget=0;verticalAlign=top;" vertex="1" parent="1">
                    <mxGeometry x="580" y="630" width="160" height="90" as="geometry"/>
                </mxCell>
                <mxCell id="71" value="" style="shape=module;jettyWidth=8;jettyHeight=4;" vertex="1" parent="70">
                    <mxGeometry x="1" width="20" height="20" relative="1" as="geometry">
                        <mxPoint x="-27" y="7" as="offset"/>
                    </mxGeometry>
                </mxCell>
                <mxCell id="72" value="&lt;font style=&quot;font-size: 12px;&quot;&gt;«&lt;span style=&quot;&quot;&gt;Provider&lt;/span&gt;»&lt;br&gt;&lt;/font&gt;&lt;span style=&quot;&quot;&gt;Bookings&lt;/span&gt;" style="html=1;dropTarget=0;verticalAlign=top;" vertex="1" parent="1">
                    <mxGeometry x="780" y="630" width="160" height="90" as="geometry"/>
                </mxCell>
                <mxCell id="73" value="" style="shape=module;jettyWidth=8;jettyHeight=4;" vertex="1" parent="72">
                    <mxGeometry x="1" width="20" height="20" relative="1" as="geometry">
                        <mxPoint x="-27" y="7" as="offset"/>
                    </mxGeometry>
                </mxCell>
                <mxCell id="74" value="&lt;font style=&quot;font-size: 12px;&quot;&gt;«&lt;span style=&quot;&quot;&gt;Provider&lt;/span&gt;»&lt;br&gt;&lt;/font&gt;&lt;span style=&quot;&quot;&gt;Routes&lt;/span&gt;" style="html=1;dropTarget=0;verticalAlign=top;" vertex="1" parent="1">
                    <mxGeometry x="680" y="739" width="160" height="90" as="geometry"/>
                </mxCell>
                <mxCell id="75" value="" style="shape=module;jettyWidth=8;jettyHeight=4;" vertex="1" parent="74">
                    <mxGeometry x="1" width="20" height="20" relative="1" as="geometry">
                        <mxPoint x="-27" y="7" as="offset"/>
                    </mxGeometry>
                </mxCell>
            </root>
        </mxGraphModel>
    </diagram>
</mxfile>